<svg width="1390" height="1210" viewBox="0 0 1390 1210" fill="none" xmlns="http://www.w3.org/2000/svg">
<path d="M111.112 244.051C134.774 186.867 137.476 124.368 143.414 63.6595C145.409 43.2716 144.59 19.3935 163.222 7.69433C171.5 2.49656 177.088 2.1867 187.15 4.50392C244.221 17.6476 301.348 43.6039 352.387 71.6355C386.588 90.42 418.577 112.759 443.446 143.154C446.148 146.457 447.176 150.758 445.573 154.985C441.692 165.217 427.958 173.222 419.518 178.647C385.862 200.283 348.647 217.992 311.576 232.884C288.497 242.155 264.641 249.129 242.184 259.471C240.815 260.102 227.935 269.043 226.498 267.447C221.268 261.636 235.738 243.951 238.196 240.196C252.325 218.61 266.686 194.307 283.527 174.659C286.74 170.911 289.614 166.333 293.497 163.227C297.238 160.234 313.004 164.564 314.766 164.822C384.497 175.027 454.484 182.67 524.27 192.339C564.758 197.949 602.432 198.342 643.379 198.587C740.906 199.171 838.233 216.919 935.036 226.769C969.041 230.23 993.945 237.088 1025.7 249.102C1036.62 253.236 1052.72 263.401 1064.91 259.338C1088.44 251.494 1111.32 240.886 1134.97 232.884C1187.78 215.016 1241.16 200.964 1295.29 187.687C1301.37 186.195 1383.1 160.721 1385.95 169.608C1387.87 175.616 1385.55 184.637 1384.35 190.345C1379.81 211.901 1373.25 233.214 1367.34 254.42C1358.25 286.978 1349.79 319.936 1339.95 352.259C1335.13 368.103 1326.11 385.386 1324.27 401.976C1323.45 409.301 1312.96 408.744 1308.31 407.293C1272.89 396.224 1235.61 378.653 1209.41 351.727C1199.16 341.193 1192.65 326.988 1183.09 315.835C1176.92 308.636 1201.41 302.112 1207.42 301.611C1228.49 299.855 1250.46 299.085 1271.62 299.085C1276.32 299.085 1282.86 291.604 1283.46 298.421C1284.88 314.792 1283.59 331.688 1283.59 348.138C1283.59 358.685 1288.37 366.095 1288.37 376.852C1288.37 382.21 1290.2 387.033 1290.77 392.405C1291.34 397.886 1295.78 405.764 1297.28 411.414C1302.5 431.106 1310.53 450.218 1317.09 469.507C1338.37 532.151 1341.5 602.938 1335.17 668.641C1328.85 734.144 1305.34 797.713 1285.98 860.199C1272.99 902.138 1255.4 940.856 1234.4 979.441C1186 1068.37 1104.7 1127.64 1012.14 1164.22C968.71 1181.38 923.505 1195.18 877.209 1201.84C820.925 1209.93 762.535 1205.96 705.858 1205.96C625.741 1205.96 544.842 1209.57 468.704 1181.5C436.826 1169.75 403.925 1159.19 372.991 1145.08C341.924 1130.91 313.167 1108 283.793 1090.57C225.76 1056.15 171.786 1023.65 125.468 974.389C106.652 954.378 89.7451 933.753 73.0925 911.91C57.6132 891.606 37.665 873.629 27.762 849.697C13.9628 816.349 11.2145 781.098 7.1573 745.743C-0.559942 678.493 4.44281 599.881 38.1309 539.829C50.8535 517.149 62.9462 494.989 78.144 473.76C96.5284 448.081 126.729 429.081 152.321 411.016C179.684 391.701 222.841 388.606 255.212 384.163C297.122 378.411 339.998 375.655 382.297 375.655C414.454 375.655 452.124 391.176 481.332 403.173C502.307 411.787 516.437 419.15 524.802 440.66C531.186 457.078 534.197 490.575 527.46 507.791C524.207 516.107 507.957 531.771 498.747 523.876C470.435 499.61 486.272 458.095 517.357 446.642C533.935 440.535 540.55 448.383 545.273 465.253C548.766 477.726 542.262 493.175 529.321 497.157C519.861 500.068 510.757 491.03 504.995 484.661C500.268 479.437 499.412 459.324 508.318 470.703C521.707 487.812 515.825 515.671 496.354 525.87C485.665 531.469 491.943 491.079 493.961 487.187C499.326 476.841 510.123 469.003 521.345 466.05C535.817 462.242 551.937 464.189 566.676 464.189C638.593 464.189 710.51 464.189 782.427 464.189C828.953 464.189 875.536 463.403 922.008 466.05C941.042 467.134 947.42 471.457 962.287 483.465C985.636 502.323 1010.53 519.621 1031.55 541.158C1036.46 546.197 1041.91 549.005 1041.91 556.179C1041.91 583.628 1007.99 601.043 985.285 608.422C965.879 614.729 940.26 602.877 929.851 586.222C919.53 569.708 922.285 545.184 939.555 535.442C953.822 527.394 974.831 524.599 988.076 536.372C998.596 545.724 1013.23 571.515 996.983 582.766C985.167 590.946 978.079 569.968 977.707 562.161C977.3 553.601 979.298 542.311 984.487 535.176C989.689 528.023 1001.45 549.972 1002.57 552.723C1015.84 585.343 982.725 593.649 956.571 595.661C939.508 596.973 927.848 571.892 932.909 557.509C938.794 540.783 955.166 535.679 962.42 553.255C966.93 564.182 969.827 589.494 958.166 596.99C933.244 613.011 896.211 617.48 868.037 625.039C846.27 630.879 824.626 637.643 802.633 642.586C749.452 654.54 691.149 648.435 636.998 648.435C621.908 648.435 581.663 642.112 593.794 669.173C615.942 718.579 694.896 725.005 740.686 725.005C756.333 725.005 759.989 721.863 761.424 706.395C762.728 692.338 762.814 676.886 758.499 663.324C750.991 639.727 739.039 660.207 727.925 667.046C724.603 669.09 717.171 660.499 714.631 659.07C708.557 655.653 697.249 658.007 690.437 658.007C684.145 658.007 677.853 658.007 671.561 658.007C666.005 658.007 654.304 656.489 661.325 665.85C672.55 680.817 692.463 693.222 710.377 698.153C720.134 700.838 744.445 710.411 754.246 705.065C759.366 702.272 764.473 673.427 754.511 673.427C733.405 673.427 712.61 686.533 697.749 700.546C684.254 713.269 670.04 725.256 654.944 736.039C632.439 752.114 608.708 771.802 582.761 781.901C551.024 794.254 514.584 795.909 480.934 796.657C460.754 797.105 450.623 796.973 433.875 785.091C407.389 766.301 382.487 744.785 357.837 723.676C350.352 717.266 330.603 705.374 326.597 695.361C322.269 684.541 326.211 718.672 326.464 730.323C326.906 750.636 328.985 777.115 338.428 795.327C350.248 818.122 383.409 819.392 405.56 821.781C435.368 824.996 465.31 827.272 495.29 827.763C513.1 828.055 534.181 831.175 550.591 822.579C592.392 800.683 629.408 768.085 667.971 741.09C694.072 722.82 719.724 706.166 739.357 680.605C741.946 677.235 749.178 663.056 746.004 674.889C739.371 699.611 730.101 724.581 726.595 749.997C720.048 797.464 766.165 824.993 804.495 839.594C869.635 864.41 936.989 870.967 1006.02 870.967C1045.81 870.967 1077.97 872.556 1113.3 850.362C1143.93 831.119 1177.51 798.099 1193.46 764.753C1199.01 753.147 1178.96 778.981 1178.7 779.242C1155.71 802.947 1128.08 822.177 1098.01 835.872C1054.92 855.503 1012.29 856.398 965.743 852.755C930.383 849.987 889.763 849.514 859.529 829.226C831.347 810.314 793.149 799.402 772.059 771.532C759.841 755.388 753.599 728.655 747.732 709.585C745.627 702.746 742.067 683.94 738.559 690.177C734.38 697.607 727.705 700.77 722.607 707.325C711.147 722.06 706.385 746.685 699.61 763.423C690.074 786.982 681.302 818.203 665.18 838.531C650.35 857.23 624.46 889.085 599.511 894.629C586.031 897.624 576.379 883.638 570.531 873.891C567.446 868.749 563.353 865.016 563.353 858.87C563.353 854.217 563.353 840.259 563.353 844.912C563.353 852.674 559.613 863.788 569.335 863.788C580.769 863.788 592.279 868.574 604.03 868.574C614.528 868.574 624.438 873.36 635.27 873.36C653.063 873.36 664.621 868.819 674.751 854.084C693.479 826.843 704.541 794.857 723.671 768.076C726.98 763.444 728.297 752.13 728.456 746.541C728.996 727.639 700.742 768.311 697.882 774.723C689.216 794.146 687.779 812.116 687.779 832.948C687.779 850.492 685.339 887.942 702.667 899.68C722.44 913.075 759.542 906.859 782.295 906.859C802.562 906.859 813.747 893.971 828.821 882C829.958 881.098 846.261 870.662 839.057 876.151C822.29 888.926 805.073 901.228 786.416 911.113C770.522 919.533 742.236 940.185 726.196 923.077C710.803 906.657 708.766 885.764 709.314 864.586C709.876 842.86 726.064 779.842 726.064 801.575" stroke="#106944" stroke-width="6" stroke-linecap="round"/>
</svg>
